<svg width="116" height="79" viewBox="0 0 116 79" fill="none" xmlns="http://www.w3.org/2000/svg">
<path fill-rule="evenodd" clip-rule="evenodd" d="M46.9097 15.845C45.6881 15.845 44.7285 15.3801 44.0309 14.4502C43.3333 13.5203 42.9845 12.2318 42.9845 10.5847C42.9845 8.91324 43.3395 7.61107 44.0495 6.67811C44.7595 5.74516 45.7377 5.27869 46.9841 5.27869C48.2925 5.27869 49.2908 5.77707 49.9791 6.77384H50.0721C49.9295 6.0141 49.8582 5.33643 49.8582 4.7408V1.47699H52.7044V15.6627H50.5279L49.9791 14.3408H49.8582C49.2133 15.3436 48.2305 15.845 46.9097 15.845ZM47.9049 13.6297C48.6304 13.6297 49.1622 13.423 49.5001 13.0097C49.8381 12.5964 50.0225 11.8944 50.0535 10.9037V10.6029C50.0535 9.50887 49.8815 8.72483 49.5373 8.25076C49.1932 7.77668 48.6335 7.53965 47.8584 7.53965C47.2259 7.53965 46.7345 7.80251 46.3842 8.32825C46.0338 8.85399 45.8586 9.61827 45.8586 10.6211C45.8586 11.624 46.0354 12.3761 46.3888 12.8775C46.7423 13.3789 47.2476 13.6297 47.9049 13.6297ZM57.9313 10.5482C57.9313 11.5571 58.1003 12.3199 58.4382 12.8365C58.7762 13.3531 59.3265 13.6114 60.0892 13.6114C60.8457 13.6114 61.3898 13.3546 61.7216 12.8411C62.0533 12.3275 62.2192 11.5632 62.2192 10.5482C62.2192 9.53926 62.0518 8.78257 61.7169 8.27811C61.3821 7.77364 60.8333 7.52142 60.0706 7.52142C59.3141 7.52142 58.7684 7.77212 58.4336 8.27355C58.0987 8.77498 57.9313 9.53318 57.9313 10.5482ZM65.1212 10.5482C65.1212 12.2074 64.6748 13.5051 63.7818 14.4411C62.8889 15.377 61.6456 15.845 60.052 15.845C59.0536 15.845 58.1731 15.6308 57.4104 15.2023C56.6477 14.7738 56.0617 14.1584 55.6525 13.3562C55.2432 12.5539 55.0386 11.6179 55.0386 10.5482C55.0386 8.88285 55.4819 7.58828 56.3687 6.66444C57.2554 5.7406 58.5018 5.27869 60.1078 5.27869C61.1062 5.27869 61.9867 5.49141 62.7494 5.91686C63.5121 6.34231 64.0981 6.95313 64.5073 7.74933C64.9166 8.54554 65.1212 9.47848 65.1212 10.5482ZM74.8313 15.6627L74.45 14.359H74.3012C73.9973 14.8331 73.5664 15.1993 73.0083 15.4576C72.4502 15.7159 71.8146 15.845 71.1015 15.845C69.8799 15.845 68.9591 15.5244 68.339 14.8832C67.7189 14.242 67.4089 13.3197 67.4089 12.1163V5.47014H70.2458V11.4234C70.2458 12.1588 70.3791 12.7104 70.6457 13.0781C70.9124 13.4458 71.3371 13.6297 71.92 13.6297C72.7137 13.6297 73.2873 13.3698 73.6408 12.8502C73.9942 12.3305 74.1709 11.469 74.1709 10.2656V5.47014H77.0079V15.6627H74.8313ZM89.034 5.47014V6.88324L87.4063 7.2935C87.7039 7.74934 87.8527 8.25987 87.8527 8.82512C87.8527 9.91913 87.4636 10.7715 86.6854 11.3824C85.9072 11.9932 84.8267 12.2986 83.4439 12.2986L82.9323 12.2713L82.5138 12.2257C82.2223 12.4445 82.0766 12.6876 82.0766 12.955C82.0766 13.3562 82.5975 13.5567 83.6392 13.5567H85.4065C86.5474 13.5567 87.4171 13.7968 88.0155 14.2769C88.6139 14.7571 88.9131 15.4621 88.9131 16.392C88.9131 17.5833 88.4062 18.5071 87.3923 19.1635C86.3785 19.82 84.9228 20.1482 83.0253 20.1482C81.5743 20.1482 80.4659 19.9005 79.7001 19.4051C78.9343 18.9098 78.5514 18.2154 78.5514 17.322C78.5514 16.7081 78.7467 16.1945 79.1374 15.7812C79.528 15.3679 80.1016 15.0731 80.8581 14.8969C80.5667 14.7753 80.3124 14.5763 80.0954 14.2997C79.8784 14.0232 79.7699 13.7299 79.7699 13.42C79.7699 13.031 79.8846 12.7073 80.114 12.449C80.3435 12.1907 80.6752 11.937 81.1093 11.6878C80.5636 11.4568 80.1311 11.0861 79.8117 10.5755C79.4924 10.065 79.3327 9.46329 79.3327 8.77041C79.3327 7.65816 79.7017 6.79815 80.4396 6.19037C81.1775 5.58258 82.2316 5.27869 83.602 5.27869C83.8935 5.27869 84.2392 5.30452 84.6391 5.35618C85.0391 5.40784 85.2949 5.44583 85.4065 5.47014H89.034ZM81.0069 17.1032C81.0069 17.4861 81.1945 17.7869 81.5697 18.0057C81.9448 18.2245 82.4704 18.3339 83.1463 18.3339C84.1632 18.3339 84.96 18.1972 85.5367 17.9237C86.1134 17.6502 86.4017 17.2764 86.4017 16.8023C86.4017 16.4194 86.2312 16.155 85.8901 16.0091C85.5491 15.8633 85.022 15.7903 84.3089 15.7903H82.8393C82.3184 15.7903 81.8828 15.9104 81.5325 16.1504C81.1821 16.3905 81.0069 16.7081 81.0069 17.1032ZM82.0394 8.80688C82.0394 9.35997 82.1681 9.79757 82.4254 10.1197C82.6827 10.4418 83.0749 10.6029 83.602 10.6029C84.1353 10.6029 84.526 10.4418 84.774 10.1197C85.022 9.79757 85.146 9.35997 85.146 8.80688C85.146 7.57915 84.6314 6.96529 83.602 6.96529C82.5603 6.96529 82.0394 7.57915 82.0394 8.80688ZM98 12.6359C98 13.6813 97.6295 14.4775 96.8885 15.0245C96.1475 15.5715 95.0391 15.845 93.5633 15.845C92.8068 15.845 92.1619 15.7949 91.6286 15.6946C91.0953 15.5943 90.5961 15.4469 90.1311 15.2524V12.955C90.6582 13.1981 91.2519 13.4017 91.9123 13.5658C92.5727 13.7299 93.154 13.812 93.6563 13.812C94.6856 13.812 95.2003 13.5203 95.2003 12.9368C95.2003 12.718 95.1321 12.5402 94.9957 12.4035C94.8593 12.2667 94.6236 12.1117 94.2888 11.9385C93.9539 11.7653 93.5075 11.5632 92.9494 11.3322C92.1495 11.004 91.5619 10.7001 91.1868 10.4206C90.8116 10.141 90.5388 9.82037 90.3683 9.45873C90.1977 9.0971 90.1125 8.6519 90.1125 8.12312C90.1125 7.21752 90.4706 6.51705 91.1868 6.02171C91.903 5.52636 92.9184 5.27869 94.233 5.27869C95.4856 5.27869 96.704 5.54611 97.8884 6.08096L97.0327 8.08666C96.5118 7.86785 96.025 7.68856 95.5724 7.54877C95.1197 7.40897 94.6577 7.33908 94.1865 7.33908C93.3493 7.33908 92.9308 7.56092 92.9308 8.0046C92.9308 8.2538 93.0656 8.46956 93.3354 8.6519C93.6051 8.83423 94.1958 9.10469 95.1073 9.46329C95.9196 9.78542 96.5149 10.0863 96.8931 10.3659C97.2714 10.6454 97.5504 10.9676 97.7303 11.3322C97.9101 11.6969 98 12.1315 98 12.6359Z" fill="white"/>
<path fill-rule="evenodd" clip-rule="evenodd" d="M37.0099 9.29915C37.0099 14.4349 32.7544 18.5983 27.505 18.5983C22.2555 18.5983 18 14.4349 18 9.29915C18 4.16337 22.2555 0 27.505 0C30.3432 0 32.8909 1.21707 34.6325 3.14687L27.7128 9.92926L24.6579 6.93498C24.4721 6.75282 24.2514 6.66175 23.9958 6.66175C23.7403 6.66175 23.5196 6.75282 23.3337 6.93498L22.056 8.18733C21.8702 8.3695 21.7773 8.58581 21.7773 8.83628C21.7773 9.08676 21.8702 9.30308 22.056 9.48524L27.0507 14.3808C27.2366 14.563 27.4573 14.6541 27.7128 14.6541C27.9683 14.6541 28.189 14.563 28.3749 14.3808L36.5335 6.38407C36.8426 7.30096 37.0099 8.28094 37.0099 9.29915Z" fill="#11ABEC"/>
<path d="M0.5 65.3096V65.8096H1H6.53653H7.03653V65.3096V51.8475H15.0832C18.677 51.8475 21.6906 50.6902 24.0859 48.3615C26.4816 46.0324 27.6776 43.1047 27.6776 39.6151C27.6776 36.1268 26.4821 33.2478 24.08 31.0223C21.718 28.765 18.7049 27.6481 15.0832 27.6481H1H0.5V28.1481V65.3096ZM19.2521 35.3571L19.2521 35.3572L19.2574 35.3621C20.4391 36.4643 21.0335 37.8681 21.0335 39.6151C21.0335 41.4376 20.4354 42.9155 19.2495 44.0879C18.0646 45.2244 16.5466 45.8042 14.6532 45.8042H7.03653V33.6384H14.6532C16.548 33.6384 18.0668 34.219 19.2521 35.3571ZM57.7355 65.3096V65.8096H58.2355H63.6108H64.1108V65.3096V49.3833C64.1108 47.4832 64.7135 45.9503 65.9021 44.7439L65.9067 44.7391C67.0929 43.5025 68.624 42.8757 70.5448 42.8757C72.2507 42.8757 73.6444 43.4322 74.7624 44.5364L74.7677 44.5415C75.9153 45.6425 76.4952 47.0477 76.4952 48.7993V65.3096V65.8096H76.9952H82.3704H82.8704V65.3096V47.2597C82.8704 44.3843 81.9522 41.9264 80.108 39.9174C78.2766 37.8471 75.7477 36.8323 72.5875 36.8323C70.4855 36.8323 68.6718 37.4088 67.1755 38.5822C65.8087 39.6213 64.8517 40.8973 64.3226 42.4065H64.1108V38.0225V37.5225H63.6108H58.2355H57.7355V38.0225V65.3096ZM88.86 47.2067C88.86 50.0623 89.7848 52.3939 91.6513 54.1539C90.3421 55.1078 89.6663 56.4305 89.6663 58.0896C89.6663 59.2231 90.0057 60.222 90.6934 61.061L90.6932 61.0611L90.7024 61.0718C91.3476 61.8151 92.1925 62.3269 93.2139 62.6192V62.7922H92.9614C91.0591 62.7922 89.4745 63.3789 88.2561 64.5822C87.0504 65.773 86.4411 67.2282 86.4411 68.9195C86.4411 70.3616 86.7739 71.6488 87.4551 72.7637C88.1355 73.8773 89.1468 74.7917 90.4627 75.5158C93.0693 76.9501 96.4398 77.6481 100.541 77.6481C102.358 77.6481 104.073 77.5045 105.682 77.2156C107.298 76.9252 108.86 76.4355 110.366 75.7468C111.915 75.0741 113.153 74.0602 114.068 72.707C115.028 71.3401 115.5 69.7341 115.5 67.9109C115.5 65.3782 114.626 63.323 112.857 61.8018C111.132 60.2512 108.835 59.5008 106.023 59.5008H98.0679C97.3956 59.5008 96.8481 59.3608 96.4052 59.1031C96.0528 58.8483 95.8803 58.5113 95.8803 58.0366C95.8803 57.6908 95.9596 57.4349 96.0903 57.2413C96.1974 57.0826 96.3563 56.9401 96.5868 56.8225C97.6854 57.1904 98.9526 57.3686 100.379 57.3686C103.476 57.3686 106.128 56.5844 108.306 54.9905C110.55 53.3742 111.684 51.1527 111.684 48.3746C111.684 46.9976 111.275 45.7752 110.454 44.7289C109.743 43.7498 108.804 43.0834 107.652 42.735V42.5571H114.57H115.07V42.0571V37.4916V36.968L114.547 36.9921L104.266 37.4656C102.99 37.044 101.694 36.8323 100.379 36.8323C97.0555 36.8323 94.2806 37.7651 92.096 39.6623L92.0928 39.6651C89.9323 41.5743 88.86 44.105 88.86 47.2067ZM104.227 50.9327L104.221 50.9387C103.293 51.8544 102.032 52.334 100.379 52.334C98.7695 52.334 97.5046 51.8584 96.538 50.9387C95.6054 49.9827 95.1277 48.7531 95.1277 47.2067C95.1277 45.7733 95.6006 44.6127 96.5379 43.687C97.5062 42.7307 98.771 42.2386 100.379 42.2386C102.027 42.2386 103.286 42.7327 104.215 43.681L104.221 43.687L104.227 43.6929C105.198 44.62 105.685 45.7787 105.685 47.2067C105.685 48.7902 105.188 50.0146 104.227 50.9328L104.227 50.9327ZM100.541 72.0295C97.8457 72.0295 95.9027 71.6634 94.6501 70.9879C94.0312 70.6541 93.5922 70.2511 93.3061 69.7881C93.0208 69.3265 92.8701 68.7775 92.8701 68.1232C92.8701 67.2449 93.1989 66.5339 93.8772 65.9554C94.5545 65.3777 95.4691 65.0664 96.6703 65.0664H105.002C106.407 65.0664 107.407 65.3718 108.074 65.9108C108.739 66.4479 109.071 67.1511 109.071 68.0701C109.071 68.7246 108.907 69.2752 108.592 69.7414C108.275 70.211 107.786 70.6238 107.092 70.9664C105.691 71.6584 103.526 72.0295 100.541 72.0295Z" fill="url(#paint0_linear_2_93)" stroke="#11ABEC"/>
<path d="M18.5 52.6481L31 62.1481L40 50.6481" stroke="url(#paint1_linear_2_93)" stroke-width="5" stroke-linecap="round"/>
<g filter="url(#filter0_d_2_93)">
<circle cx="42" cy="48" r="10" fill="url(#paint2_linear_2_93)"/>
</g>
<defs>
<filter id="filter0_d_2_93" x="24" y="36" width="36" height="36" filterUnits="userSpaceOnUse" color-interpolation-filters="sRGB">
<feFlood flood-opacity="0" result="BackgroundImageFix"/>
<feColorMatrix in="SourceAlpha" type="matrix" values="0 0 0 0 0 0 0 0 0 0 0 0 0 0 0 0 0 0 127 0" result="hardAlpha"/>
<feOffset dy="6"/>
<feGaussianBlur stdDeviation="4"/>
<feComposite in2="hardAlpha" operator="out"/>
<feColorMatrix type="matrix" values="0 0 0 0 0.0851273 0 0 0 0 0.0757011 0 0 0 0 0.166821 0 0 0 1 0"/>
<feBlend mode="normal" in2="BackgroundImageFix" result="effect1_dropShadow_2_93"/>
<feBlend mode="normal" in="SourceGraphic" in2="effect1_dropShadow_2_93" result="shape"/>
</filter>
<linearGradient id="paint0_linear_2_93" x1="58" y1="28.1481" x2="58" y2="77.1481" gradientUnits="userSpaceOnUse">
<stop offset="0.412294" stop-color="white"/>
<stop offset="0.556409" stop-color="#58BCD7"/>
<stop offset="0.743758" stop-color="#221F62"/>
</linearGradient>
<linearGradient id="paint1_linear_2_93" x1="34.5" y1="56.1481" x2="19.5" y2="56.1481" gradientUnits="userSpaceOnUse">
<stop stop-color="white"/>
<stop offset="0.802475" stop-color="#282B30" stop-opacity="0"/>
</linearGradient>
<linearGradient id="paint2_linear_2_93" x1="42" y1="38" x2="42" y2="58" gradientUnits="userSpaceOnUse">
<stop stop-color="#C52591"/>
<stop offset="1" stop-color="#FF0F83"/>
</linearGradient>
</defs>
</svg>
